<svg xmlns="http://www.w3.org/2000/svg" viewBox="0 0 400 300" width="406" height="306" class="illustration styles_illustrationTablet__1DWOa"><g id="_101_chatting_outline" data-name="#101_chatting_outline"><path d="M233.14,193.7c2.34-4.16,5.38-8,7-12.5a2.89,2.89,0,0,0,.24-1.44,2.2,2.2,0,0,0-2.57-1.53,5.56,5.56,0,0,0-2.79,1.7,32.26,32.26,0,0,0-9.5,18l.07-6.26c0-1.22-.21-2.78-1.39-3.1-1.38-.37-2.35,1.33-2.69,2.71a36.21,36.21,0,0,0-1,9.62c-.21-1.93-.48-4-1.79-5.42s-4-1.63-5,.08a4.64,4.64,0,0,0,0,3.3q2.76,10.4,5.93,20.68c.65,2.14,1.39,4.37,3,5.9,2,1.91,5.61,2.3,5.59-1.08s-.9-6.82-.78-10.31A44.76,44.76,0,0,1,233.14,193.7Z" fill="#70cc40"></path><path d="M226,227.87a6.08,6.08,0,0,1-4-1.72c-1.73-1.64-2.51-3.84-3.28-6.33-2.11-6.83-4.1-13.8-5.93-20.73a5.37,5.37,0,0,1,.05-4,3.29,3.29,0,0,1,2.59-1.71,4.76,4.76,0,0,1,4,1.42c.12.14.23.27.34.42a37.05,37.05,0,0,1,.78-4.18,5.39,5.39,0,0,1,2-3.17,2.38,2.38,0,0,1,1.89-.26c.86.23,1.86,1,2.08,3.06a33.2,33.2,0,0,1,7.79-11.45,6.55,6.55,0,0,1,3.32-2,3.55,3.55,0,0,1,2.59.6,2.74,2.74,0,0,1,1.13,1.76,4.06,4.06,0,0,1-.28,1.94,44.09,44.09,0,0,1-4.64,8.72c-.82,1.28-1.66,2.6-2.4,3.93h0a43.75,43.75,0,0,0-5.55,19.87,35.15,35.15,0,0,0,.38,5.43,42.49,42.49,0,0,1,.4,4.84,3.23,3.23,0,0,1-1.85,3.27A3.58,3.58,0,0,1,226,227.87Zm-10-32.55-.3,0a1.37,1.37,0,0,0-1.08.66,3.81,3.81,0,0,0,.11,2.58c1.82,6.9,3.81,13.84,5.91,20.65.68,2.21,1.36,4.16,2.75,5.47,1,.93,2.45,1.41,3.25,1.06.17-.07.65-.28.65-1.42a38.92,38.92,0,0,0-.39-4.61,37.23,37.23,0,0,1-.39-5.74,45.67,45.67,0,0,1,5.81-20.78h0c.77-1.38,1.62-2.72,2.45-4a41.57,41.57,0,0,0,4.44-8.32,2.34,2.34,0,0,0,.19-1,.76.76,0,0,0-.31-.45,1.57,1.57,0,0,0-1.1-.25,4.92,4.92,0,0,0-2.27,1.44,31.15,31.15,0,0,0-9.2,17.42,1,1,0,0,1-1.08.83,1,1,0,0,1-.91-1l.07-6.26c0-1.2-.24-2-.65-2.12a.44.44,0,0,0-.36,0,3.38,3.38,0,0,0-1.1,1.93,35.47,35.47,0,0,0-1,9.35,1,1,0,0,1-2,.13c-.21-2-.47-3.7-1.53-4.84A2.76,2.76,0,0,0,216,195.32Zm17.19-1.62h0Z" fill="#093f68"></path><path d="M232.32,209.66c1.2-6.44,4-12.73,8.68-17.31a4.42,4.42,0,0,1,1.82-1.21,1.69,1.69,0,0,1,1.93.69,2.43,2.43,0,0,1,0,1.72,58.2,58.2,0,0,1-4.33,11.71,22.64,22.64,0,0,1,9.82-8.94,7.89,7.89,0,0,1,4.26-.93,3.46,3.46,0,0,1,3.08,2.71c.21,1.55-.95,2.92-2.06,4a79,79,0,0,1-12.91,10.37,21.39,21.39,0,0,1,8.29-3.2,4.16,4.16,0,0,1,2.57.19,1.65,1.65,0,0,1,.82,2.18,2.33,2.33,0,0,1-.94.75c-4.19,2.19-9.34,2.87-12.57,6.32-2.51,2.67-3.33,6.47-5.15,9.65a3.65,3.65,0,0,1-1.78,1.77c-2.85,1-2.24-7.11-2.29-8.71A54.63,54.63,0,0,1,232.32,209.66Z" fill="#70cc40"></path><path d="M233.39,231.22a2,2,0,0,1-1.2-.39c-1.63-1.19-1.71-4.79-1.65-8.38,0-.42,0-.77,0-1a54.65,54.65,0,0,1,.79-12h0c.94-5.08,3.26-12.3,9-17.84a5.29,5.29,0,0,1,2.27-1.47,2.67,2.67,0,0,1,3.07,1.21,3.36,3.36,0,0,1,.07,2.41c-.46,1.85-1,3.67-1.66,5.47a23.3,23.3,0,0,1,5.75-3.84,8.82,8.82,0,0,1,4.82-1,4.46,4.46,0,0,1,3.95,3.57c.25,2-1.05,3.56-2.36,4.86a81.75,81.75,0,0,1-6.29,5.61c.27-.06.54-.1.82-.15a5.18,5.18,0,0,1,3.18.29,2.89,2.89,0,0,1,1.44,1.77,2.29,2.29,0,0,1-.22,1.82,3.32,3.32,0,0,1-1.34,1.12,40.38,40.38,0,0,1-4.73,2c-2.89,1.06-5.63,2.07-7.57,4.14a18.75,18.75,0,0,0-3.22,5.68,36.17,36.17,0,0,1-1.8,3.78,4.53,4.53,0,0,1-2.31,2.23A2.36,2.36,0,0,1,233.39,231.22Zm0-2a.25.25,0,0,0,.14,0,2.79,2.79,0,0,0,1.23-1.32,35.58,35.58,0,0,0,1.69-3.58A20.68,20.68,0,0,1,240,218c2.27-2.42,5.36-3.55,8.34-4.65a37.18,37.18,0,0,0,4.49-1.87,1.61,1.61,0,0,0,.56-.39.3.3,0,0,0,0-.23.92.92,0,0,0-.44-.53,3.35,3.35,0,0,0-1.95-.09,20.27,20.27,0,0,0-7.72,2.93l-.19.12a1,1,0,1,1-1.09-1.67l.2-.13A78.78,78.78,0,0,0,254.8,201.4c1-1,1.93-2.07,1.78-3.17a2.52,2.52,0,0,0-2.22-1.85,7,7,0,0,0-3.71.85,21.67,21.67,0,0,0-9.37,8.54,1,1,0,0,1-1.34.37,1,1,0,0,1-.42-1.32,58.38,58.38,0,0,0,4.26-11.52,1.88,1.88,0,0,0,.08-1,.74.74,0,0,0-.78-.19,3.56,3.56,0,0,0-1.38,1c-5.33,5.18-7.51,12-8.4,16.78a53.77,53.77,0,0,0-.75,11.55c0,.24,0,.62,0,1.09-.09,5.73.56,6.61.84,6.73Zm0,0h0Z" fill="#093f68"></path><rect x="215.92" y="222.71" width="25.97" height="11.64" fill="#f56132"></rect><path d="M241.89,235.34h-26a1,1,0,0,1-1-1V222.71a1,1,0,0,1,1-1h26a1,1,0,0,1,1,1v11.63A1,1,0,0,1,241.89,235.34Zm-25-2h24v-9.63h-24Z" fill="#093f68"></path><path d="M133.36,235.16c0-1.12-19.54-58.23-10.15-71.08s49.92-6.34,55.41-5.5S213.47,235,213.47,235Z" fill="#ffbc0e"></path><path d="M133.36,236.16a1,1,0,0,1-1-.92c-.07-.32-.52-1.82-1.05-3.55-4.26-14.05-17.23-56.82-8.92-68.2s38.66-8.62,56-6l.36.05c1.19.18,4,.61,20.25,39.1,7.94,18.79,15.3,37.71,15.38,37.9a1,1,0,0,1-.11.93,1,1,0,0,1-.82.43l-80.1.21Zm17.73-79c-14,0-23.45,2.54-27.08,7.5-5.12,7-2,29.37,9.23,66.44.47,1.56.75,2.48.91,3L212,234c-13.78-35.35-30.08-73.08-33.58-74.4l-.32-.05A181.34,181.34,0,0,0,151.09,157.17Z" fill="#093f68"></path><path d="M182.42,201.84s19.32-4.44,29.46,6.62,11.21,26.7,11.21,26.7H186.4" fill="#ffbc0e"></path><path d="M223.09,236.16H186.4a1,1,0,0,1,0-2H222c-.46-3.67-2.57-16-10.84-25-9.62-10.49-28.31-6.36-28.5-6.31a1,1,0,0,1-.45-1.95,45.75,45.75,0,0,1,11.2-.87c8.25.37,14.9,3.06,19.22,7.78C222.87,219,224,234.44,224.09,235.09a1,1,0,0,1-.27.75A1,1,0,0,1,223.09,236.16Z" fill="#093f68"></path><polygon points="150.07 212.56 150.07 235.16 215.92 235.16 201.83 212.54 150.07 212.56" fill="#093f68"></polygon><path d="M215.92,236.16H150.07a1,1,0,0,1-1-1V212.55a1,1,0,0,1,1-1h51.76a1,1,0,0,1,.85.48l14.09,22.61a1,1,0,0,1,0,1A1,1,0,0,1,215.92,236.16Zm-64.85-2h63.05l-12.85-20.62h-50.2Z" fill="#093f68"></path><path d="M138.28,137.63l-.26.77c-2,5.9-4.3,11.87-4.15,18.09.24,10,7.2,19,16,23.88s19.14,6,29.17,5.79c7.42-.19,14.95-1.15,21.7-4.22s12.7-8.48,15.14-15.49c3.53-10.14-.67-21.37.73-32,2.26-17.27,10.63-39.26-.45-55.16-3.6-5.16-9-8.82-14.86-11.21-18-7.41-52.72-2.7-56.9,20.9-1.39,7.85.21,16.17-.2,24.09C143.75,121.4,140.87,129.76,138.28,137.63Z" fill="#725858"></path><path d="M176.62,187.19c-11.06,0-20-1.95-27.25-5.94-9.79-5.39-16.27-15.1-16.5-24.74-.13-5.62,1.7-11,3.46-16.22.25-.74.5-1.47.74-2.21l.62-1.85c2.5-7.57,5.08-15.4,5.5-23.23.16-3.14,0-6.42-.16-9.6-.23-4.82-.48-9.81.37-14.61,1.43-8,6.44-14.63,14.5-19.06,12.21-6.72,31-7.83,43.77-2.59,6.64,2.72,11.93,6.72,15.3,11.55,8.88,12.74,5.61,29.31,2.73,43.92-.83,4.2-1.61,8.17-2.11,12a62.72,62.72,0,0,0,.22,13.41c.55,6.26,1.12,12.73-1,18.81-2.35,6.75-8.06,12.61-15.66,16.07-6,2.71-13,4.08-22.1,4.3C178.23,187.18,177.42,187.19,176.62,187.19Zm6.26-121.35c-8.1,0-16.78,1.66-24,5.64-7.52,4.13-12.18,10.24-13.5,17.66-.81,4.58-.57,9.45-.34,14.16a97.26,97.26,0,0,1,.15,9.81c-.42,8.1-3.05,16-5.6,23.75l-.35,1.09h0l-.26.76c-.24.74-.49,1.48-.74,2.22-1.71,5-3.48,10.27-3.36,15.53.21,8.94,6.28,18,15.47,23,7.46,4.11,16.83,6,28.66,5.67,8.83-.22,15.61-1.53,21.32-4.13,7.1-3.23,12.43-8.67,14.6-14.91,2-5.67,1.46-11.65.9-18a64,64,0,0,1-.21-13.84c.5-3.84,1.29-7.84,2.13-12.07,2.8-14.23,6-30.35-2.41-42.39-3.15-4.52-8.13-8.27-14.42-10.85A49,49,0,0,0,182.88,65.84Zm-44.6,71.79h0Z" fill="#093f68"></path><path d="M217.25,171.18l-4.39,8.26s-4.09-9.35-6.51-15.27c-.77-1.87,1.33-11.64-22.35-11.64H167.67a17.6,17.6,0,0,0-17.6,17.6v42.41h51.76V199.93s5.78,2.8,11,1.8c9.82-1.86,17.5-21.38,18.29-29.53Z" fill="#68e1fd"></path><path d="M201.83,213.54H150.07a1,1,0,0,1-1-1V170.13a18.62,18.62,0,0,1,18.6-18.6H184c19.08,0,22.38,6.11,23.12,11.44a5.93,5.93,0,0,0,.15.82c1.74,4.24,4.36,10.3,5.68,13.35l3.41-6.43a1,1,0,0,1,1-.53l13.9,1a1,1,0,0,1,.92,1.09c-.76,7.92-8.4,28.39-19.09,30.43-4,.75-8.1-.48-10.22-1.29v11.11A1,1,0,0,1,201.83,213.54Zm-50.76-2h49.76V199.93a1,1,0,0,1,.47-.85,1,1,0,0,1,1-.05c.06,0,5.56,2.64,10.41,1.72,8.79-1.67,16.11-19.42,17.35-27.63l-12.2-.89-4.08,7.68a1,1,0,0,1-.92.53,1,1,0,0,1-.88-.6c0-.09-4.12-9.43-6.52-15.29a5.5,5.5,0,0,1-.28-1.31c-.4-2.9-1.36-9.71-21.14-9.71H167.67a16.62,16.62,0,0,0-16.6,16.6Z" fill="#093f68"></path><path d="M179.13,147h11a0,0,0,0,1,0,0v6.34a4.67,4.67,0,0,1-4.67,4.67H183.8a4.67,4.67,0,0,1-4.67-4.67V147A0,0,0,0,1,179.13,147Z" fill="#ffc9b0"></path><path d="M185.44,159H183.8a5.68,5.68,0,0,1-5.67-5.66V147a1,1,0,0,1,1-1h11a1,1,0,0,1,1,1v6.35A5.67,5.67,0,0,1,185.44,159Zm-5.31-11v5.35A3.67,3.67,0,0,0,183.8,157h1.64a3.67,3.67,0,0,0,3.67-3.66V148Z" fill="#093f68"></path><path d="M163.92,118.43c0,5.09-4.77,9.22-10.66,9.22s-10.67-6.79-10.67-11.88,4.78-6.55,10.67-6.55S163.92,113.34,163.92,118.43Z" fill="#ffc9b0"></path><path d="M153.26,128.65c-6.28,0-11.67-7.08-11.67-12.88,0-5,3.93-7.55,11.67-7.55,6.43,0,11.66,4.58,11.66,10.21S159.69,128.65,153.26,128.65Zm0-18.43c-9.67,0-9.67,4.17-9.67,5.55,0,4.79,4.55,10.88,9.67,10.88,5.32,0,9.66-3.69,9.66-8.22S158.58,110.22,153.26,110.22Z" fill="#093f68"></path><path d="M226.08,115.77c0,5.09-4.77,11.88-10.66,11.88s-10.66-4.13-10.66-9.22,4.77-9.21,10.66-9.21S226.08,110.68,226.08,115.77Z" fill="#ffc9b0"></path><path d="M215.42,128.65c-6.43,0-11.66-4.58-11.66-10.22s5.23-10.21,11.66-10.21c7.74,0,11.66,2.54,11.66,7.55C227.08,121.57,221.7,128.65,215.42,128.65Zm0-18.43c-5.33,0-9.66,3.68-9.66,8.21s4.33,8.22,9.66,8.22c5.11,0,9.66-6.09,9.66-10.88C225.08,114.39,225.08,110.22,215.42,110.22Z" fill="#093f68"></path><path d="M216.78,91.77v24.45a32.16,32.16,0,1,1-64.32,0V93.83s3.41,0,9.1,0L164,84.45l3.55,9.31c7.58-.1,17.41-.32,28.09-.77h0c1.25-4.33,3.25-12.66,3.25-12.66l8.9,12.05C210.77,92.19,213.78,92,216.78,91.77Z" fill="#ffc9b0"></path><path d="M184.62,149.47a33.25,33.25,0,0,1-33.16-33.25V93.83a1,1,0,0,1,1-1s3.16,0,8.32,0L163,84.2a1,1,0,0,1,1.91-.11l3.3,8.66c6.37-.09,15.92-.29,26.64-.73,1.23-4.4,3-11.86,3-11.94a1,1,0,0,1,.77-.74,1,1,0,0,1,1,.38l8.57,11.62c2.81-.18,5.63-.36,8.45-.57a1,1,0,0,1,1.07,1v24.45A33.24,33.24,0,0,1,184.62,149.47ZM153.46,94.83v21.39a31.16,31.16,0,1,0,62.32,0V92.84c-2.65.19-5.3.37-7.94.52A1,1,0,0,1,207,93l-7.63-10.33c-.68,2.76-1.89,7.62-2.75,10.6a1,1,0,0,1-.93.76c-11.43.48-21.6.68-28.11.77a1,1,0,0,1-.95-.65l-2.44-6.38-1.64,6.34a1,1,0,0,1-1,.75C157.71,94.84,154.88,94.84,153.46,94.83Z" fill="#093f68"></path><path d="M161.62,104.4a2,2,0,0,1,0-4l14.2-.18h0a2,2,0,0,1,0,4l-14.2.18Z" fill="#093f68"></path><path d="M208.93,104.14h0l-14.2-.09a2,2,0,0,1,0-4h0l14.2.09a2,2,0,0,1,0,4Z" fill="#093f68"></path><path d="M197.68,129.16H174s2.22,11.16,11.19,10.6C198,139,197.68,129.16,197.68,129.16Z" fill="#fff"></path><path d="M184.51,140.78c-9.14,0-11.49-11.31-11.52-11.43a1,1,0,0,1,1-1.19h23.71a1,1,0,0,1,1,1c0,.11.21,10.78-13.46,11.64Zm-9.25-10.62c.82,2.71,3.42,9,9.83,8.6,9.48-.59,11.22-6.28,11.53-8.6Z" fill="#093f68"></path><path d="M201.78,207a1,1,0,0,1-1-1V194.21a1,1,0,0,1,.18-.57c.07-.1,6.68-9.72,1.36-19.12a1,1,0,0,1,.37-1.36,1,1,0,0,1,1.37.37c5.5,9.71-.14,19.24-1.28,21V206A1,1,0,0,1,201.78,207Z" fill="#093f68"></path><path d="M188.57,125.36a17.53,17.53,0,0,1-2.92-.25,1,1,0,0,1-.81-1.15,1,1,0,0,1,1.16-.82,13.84,13.84,0,0,0,4.34.06c.13-.91-1-4-2.51-7a1,1,0,0,1,1.78-.92c1,2,3.39,6.9,2.52,8.84a1.69,1.69,0,0,1-1.12.95A10.48,10.48,0,0,1,188.57,125.36Z" fill="#093f68"></path><ellipse cx="205.6" cy="115.77" rx="2.84" ry="2.84" fill="#093f68"></ellipse><ellipse cx="176.43" cy="115.77" rx="2.84" ry="2.84" fill="#093f68"></ellipse><path d="M202.91,123.87A10.11,10.11,0,1,1,213,113.76,10.11,10.11,0,0,1,202.91,123.87Zm0-18.22a8.11,8.11,0,1,0,8.1,8.11A8.12,8.12,0,0,0,202.91,105.65Z" fill="#093f68"></path><path d="M175.81,123.87a10.11,10.11,0,1,1,10.11-10.11A10.11,10.11,0,0,1,175.81,123.87Zm0-18.22a8.11,8.11,0,1,0,8.11,8.11A8.11,8.11,0,0,0,175.81,105.65Z" fill="#093f68"></path><path d="M193.8,114.76h-8.88a1,1,0,0,1,0-2h8.88a1,1,0,0,1,0,2Z" fill="#093f68"></path><path d="M211.89,113.35a1,1,0,0,1-.77-.37,1,1,0,0,1,.15-1.4l5-4a1,1,0,0,1,1.4.15,1,1,0,0,1-.15,1.41l-5,4A1,1,0,0,1,211.89,113.35Z" fill="#093f68"></path><path d="M166.71,114.76a1,1,0,0,1-.33-.05l-13.44-4.54a1,1,0,1,1,.64-1.9L167,112.81a1,1,0,0,1-.32,2Z" fill="#093f68"></path><path d="M168.19,169.52c.6,5.74,1.58,13.67,1.58,13.67l4.35-10.05s5.55-3.59,9.7-.87c2.25,1.48,2,8.66,2,8.66-5.52,14.23-8.34,28.71-20,27.45-10.31,0-13.31-38.55-13.34-38.86" fill="#68e1fd"></path><path d="M167.2,209.46a14.41,14.41,0,0,1-1.45-.08c-4.78,0-8.48-6.41-11.31-19.43a173.17,173.17,0,0,1-3-20.26,1,1,0,0,1,.9-1.12,1,1,0,0,1,1.09.85s0,.09,0,.1c1.53,18.23,6,37.86,12.33,37.86h.11c9,1,12.31-8.26,16.47-20,.78-2.19,1.58-4.44,2.45-6.69.07-2.68-.37-6.85-1.56-7.62-3.1-2-7.31.12-8.36.72l-4.22,9.76a1,1,0,0,1-1.06.59,1,1,0,0,1-.85-.87c0-.08-1-8-1.58-13.68a1,1,0,0,1,.89-1.1,1,1,0,0,1,1.1.89c.33,3.22.79,7.16,1.13,10l2.88-6.66a1.06,1.06,0,0,1,.37-.44c.25-.16,6.15-3.91,10.8-.86,2.59,1.69,2.5,8.23,2.46,9.52a1.3,1.3,0,0,1-.07.33c-.88,2.28-1.7,4.58-2.49,6.8C180.36,199.06,176.66,209.45,167.2,209.46Z" fill="#093f68"></path><path d="M185.83,180.93l2.07-4.79s6.25,1.71,7.95-1.39-1.4-14.47-1.4-14.47,8.7,0,8.52-2.51-4.83-2.59-8.37-2.15-10,.55-12.19,1.94-8.29,15.58-8.29,15.58S177.35,179.22,185.83,180.93Z" fill="#ffc9b0"></path><path d="M185.83,181.93l-.2,0c-8.84-1.78-12.25-8-12.4-8.3a1,1,0,0,1,0-.86c1-2.42,6.31-14.56,8.69-16,1.86-1.16,5.91-1.49,9.48-1.79,1.14-.1,2.22-.18,3.11-.29,2.85-.35,6.62-.46,8.42,1a2.87,2.87,0,0,1,1.07,2,2.12,2.12,0,0,1-.6,1.61c-1.41,1.51-5.43,1.87-7.64,1.95.79,3.19,2.54,11.15,1,14-1.64,3-6.29,2.45-8.23,2.07l-1.74,4A1,1,0,0,1,185.83,181.93Zm-10.59-8.87a16.76,16.76,0,0,0,10,6.71l1.75-4a1,1,0,0,1,1.18-.57c1.42.39,5.73,1.06,6.8-.9s-.33-9.48-1.49-13.72a1,1,0,0,1,1-1.27h.09c2.57,0,6.5-.41,7.37-1.34.07-.07.07-.09.06-.1a.83.83,0,0,0-.34-.64c-.95-.78-3.53-1-6.9-.59-.92.11-2,.21-3.2.3-3.18.27-7.13.59-8.59,1.5C181.74,159.15,178.13,166.35,175.24,173.06Z" fill="#093f68"></path><polygon points="211.31 144.2 229.86 144.2 215.65 172.68 197.1 172.68 211.31 144.2" fill="#fff"></polygon><path d="M215.65,173.68H197.1a1,1,0,0,1-.85-.47,1,1,0,0,1-.05-1l14.21-28.49a1,1,0,0,1,.9-.55h18.55a1,1,0,0,1,.85.47,1,1,0,0,1,0,1l-14.21,28.49A1,1,0,0,1,215.65,173.68Zm-16.94-2H215l13.22-26.48H211.92Z" fill="#093f68"></path><path d="M233.42,157c0-1.78-1.13-6-2.66-7.79s-2.14-2.53-2.14-2.53l-2.41,5.84s-15.08.72-16.49,1.82a2,2,0,0,0,.77,3.52s-1.54.24-1.68,1a1.43,1.43,0,0,0,1.29,1.82s-2.71,1.28-.13,3c0,0-2,1.66.25,2.95s8.55,1.16,8.55,1.16L217,172.2h14.11S233.46,159.94,233.42,157Z" fill="#ffc9b0"></path><path d="M231.15,173.2H217a1,1,0,0,1-.83-.44,1,1,0,0,1-.1-.93l1.19-3c-2.11-.05-5.81-.27-7.58-1.3a2.72,2.72,0,0,1-1.55-2.11,2.58,2.58,0,0,1,.4-1.57,2.35,2.35,0,0,1-.71-1.81,2.31,2.31,0,0,1,.47-1.19l-.1-.13a2.49,2.49,0,0,1-.4-2.05,1.72,1.72,0,0,1,.58-1,2.74,2.74,0,0,1-.45-1,3.15,3.15,0,0,1,1.14-3.08c1.44-1.11,11.5-1.75,16.42-2l2.17-5.25a1,1,0,0,1,.79-.61,1,1,0,0,1,.92.37s.62.76,2.12,2.49c1.76,2,2.88,6.62,2.9,8.44h0c0,3-2.2,14.88-2.29,15.38A1,1,0,0,1,231.15,173.2Zm-12.64-2h11.81c.51-2.78,2.13-11.81,2.1-14.18h0c0-1.7-1.13-5.66-2.42-7.15l-1.09-1.27-1.78,4.31a1,1,0,0,1-.88.62c-7,.34-14.94,1-15.95,1.63a1.14,1.14,0,0,0-.39,1.06.94.94,0,0,0,.81.67,1,1,0,0,1-.08,2,2.89,2.89,0,0,0-.86.28.48.48,0,0,0,0,.34.64.64,0,0,0,.38.18,1,1,0,0,1,.33,1.9c-.32.15-.67.46-.68.61s.11.3.68.7a1,1,0,0,1,.44.77,1,1,0,0,1-.36.82c-.19.17-.47.54-.45.76s.22.36.56.55c1.63.95,6.35,1.07,8,1a1,1,0,0,1,.84.43,1,1,0,0,1,.11.94Z" fill="#093f68"></path><path d="M208,188.79a.93.93,0,0,1-.5-.14,1,1,0,0,1-.36-1.36l4.91-8.36a1,1,0,0,1,1.72,1l-4.9,8.35A1,1,0,0,1,208,188.79Z" fill="#093f68"></path><circle cx="214.39" cy="148.55" r="1.53" fill="#093f68"></circle><path d="M271.09,99.77H236.57a3.23,3.23,0,0,0-3.23,3.23v22.86a3.23,3.23,0,0,0,3.23,3.23h0L231,137.78l14.05-8.69h26a3.23,3.23,0,0,0,3.22-3.23V103A3.23,3.23,0,0,0,271.09,99.77Z" fill="#fff"></path><path d="M231,138.78a1,1,0,0,1-.71-.3,1,1,0,0,1-.14-1.24l4.76-7.47a4.24,4.24,0,0,1-2.61-3.91V103a4.24,4.24,0,0,1,4.23-4.23h34.52a4.23,4.23,0,0,1,4.22,4.23v22.86a4.23,4.23,0,0,1-4.22,4.23H245.38l-13.82,8.54A1,1,0,0,1,231,138.78Zm5.53-38a2.23,2.23,0,0,0-2.23,2.23v22.86a2.23,2.23,0,0,0,2.23,2.23,1,1,0,0,1,.84,1.54l-3.18,5,10.33-6.39a1,1,0,0,1,.53-.15h26a2.23,2.23,0,0,0,2.22-2.23V103a2.23,2.23,0,0,0-2.22-2.23Z" fill="#093f68"></path><path d="M245.55,152.33v1.91c-1.76.35-3.66.76-3.66.76l3.66,2.84v9.89a2.67,2.67,0,0,0,2.67,2.66h28.46a2.66,2.66,0,0,0,2.66-2.66v-15.4a2.66,2.66,0,0,0-2.66-2.66H248.22A2.67,2.67,0,0,0,245.55,152.33Z" fill="#fff"></path><path d="M276.68,171.39H248.22a3.67,3.67,0,0,1-3.67-3.66v-9.4l-3.27-2.54a1,1,0,0,1-.36-1,1,1,0,0,1,.76-.75s1.38-.3,2.87-.6v-1.09a3.67,3.67,0,0,1,3.67-3.66h28.46a3.66,3.66,0,0,1,3.66,3.66v15.4A3.66,3.66,0,0,1,276.68,171.39Zm-32.47-15.86,2,1.52a1,1,0,0,1,.38.79v9.89a1.66,1.66,0,0,0,1.67,1.66h28.46a1.66,1.66,0,0,0,1.66-1.66v-15.4a1.67,1.67,0,0,0-1.66-1.66H248.22a1.67,1.67,0,0,0-1.67,1.66v1.91a1,1,0,0,1-.8,1Zm1.34-1.29h0Z" fill="#093f68"></path><path d="M267.92,108.22h-27a1,1,0,0,1,0-2h27a1,1,0,0,1,0,2Z" fill="#dfeaef"></path><path d="M267.92,114.77h-27a1,1,0,0,1,0-2h27a1,1,0,0,1,0,2Z" fill="#dfeaef"></path><path d="M262.29,121.32h-21.4a1,1,0,0,1,0-2h21.4a1,1,0,0,1,0,2Z" fill="#dfeaef"></path><path d="M273.43,157.19H252.59a1,1,0,1,1,0-2h20.84a1,1,0,0,1,0,2Z" fill="#dfeaef"></path><path d="M268.92,163.67H252.59a1,1,0,0,1,0-2h16.33a1,1,0,0,1,0,2Z" fill="#dfeaef"></path><path d="M132.27,201.84s19.32-4.44,29.46,6.62,11.21,26.7,11.21,26.7H136.25" fill="#ffbc0e"></path><path d="M172.94,236.16H136.25a1,1,0,0,1,0-2h35.58c-.46-3.67-2.57-16-10.84-25-9.62-10.49-28.31-6.36-28.5-6.31a1,1,0,0,1-.45-1.95,45.75,45.75,0,0,1,11.2-.87c8.25.37,14.9,3.06,19.22,7.78,10.26,11.19,11.43,26.66,11.48,27.31a1,1,0,0,1-.27.75A1,1,0,0,1,172.94,236.16Z" fill="#093f68"></path><path d="M137.8,201.23a1,1,0,0,1-1-.8l-5.53-26.2a1,1,0,0,1,.77-1.18,1,1,0,0,1,1.19.77l5.53,26.2a1,1,0,0,1-.78,1.19Z" fill="#093f68"></path></g></svg>